<svg width="206" height="206" xmlns="http://www.w3.org/2000/svg" xmlns:xlink="http://www.w3.org/1999/xlink" overflow="hidden"><defs><clipPath id="clip0"><rect x="176" y="499" width="206" height="206"/></clipPath></defs><g clip-path="url(#clip0)" transform="translate(-176 -499)"><path d="M179.433 547.067C180.344 547.067 181.218 546.706 181.861 546.062 182.505 545.418 182.867 544.544 182.866 543.634L182.866 509.3C182.868 507.405 184.404 505.868 186.3 505.867L220.633 505.867C222.529 505.867 224.066 504.33 224.066 502.434 224.066 500.537 222.529 499 220.633 499L186.3 499C180.614 499.006 176.006 503.614 176 509.3L176 543.633C176 544.544 176.361 545.418 177.005 546.061 177.649 546.705 178.523 547.067 179.433 547.067Z" fill="#0B3E47"/><path d="M371.7 499 337.367 499C335.471 499 333.934 500.537 333.934 502.433 333.934 504.329 335.471 505.866 337.367 505.866L371.7 505.866C373.596 505.868 375.132 507.404 375.133 509.3L375.133 543.633C375.133 545.529 376.67 547.066 378.566 547.066 380.463 547.066 382 545.529 382 543.633L382 509.3C381.994 503.614 377.386 499.006 371.7 499Z" fill="#0B3E47"/><path d="M378.567 656.933C377.656 656.933 376.782 657.294 376.139 657.938 375.495 658.582 375.133 659.456 375.134 660.366L375.134 694.7C375.132 696.596 373.596 698.132 371.7 698.133L337.367 698.133C335.471 698.133 333.934 699.67 333.934 701.566 333.934 703.463 335.471 705 337.367 705L371.7 705C377.386 704.994 381.994 700.385 382 694.7L382 660.366C382 659.456 381.639 658.582 380.995 657.938 380.351 657.294 379.477 656.933 378.567 656.933Z" fill="#0B3E47"/><path d="M220.633 698.133 186.3 698.133C184.405 698.132 182.868 696.595 182.867 694.7L182.867 660.367C182.867 658.471 181.33 656.934 179.434 656.934 177.537 656.934 176 658.471 176 660.367L176 694.7C176.006 700.386 180.614 704.994 186.3 705L220.633 705C222.529 705 224.066 703.463 224.066 701.567 224.066 699.671 222.529 698.133 220.633 698.133Z" fill="#0B3E47"/><path d="M378.567 564.233 343.796 564.233C343.581 557.602 342.206 551.06 339.734 544.904 332.686 530.591 311.912 509.3 283.563 509.3L274.437 509.3C246.089 509.3 225.314 530.591 218.267 544.904 215.795 551.061 214.42 557.603 214.205 564.234L179.433 564.234C177.537 564.234 176 565.771 176 567.667 176 569.563 177.537 571.1 179.433 571.1L213.853 571.1C213.778 573.615 213.758 576.1 213.774 578.484 213.151 578.281 212.511 578.132 211.863 578.037 208.574 577.627 205.283 578.778 202.967 581.149 200.262 584.603 199.301 589.112 200.362 593.37 201.26 597.981 202.551 602.507 204.221 606.899L204.805 608.578C205.214 609.758 205.559 611.006 205.908 612.257 206.657 615.7 208.006 618.985 209.894 621.96 211.395 624.241 213.838 625.729 216.553 626.017 216.717 626.027 216.892 626.034 217.073 626.034 217.216 626.034 217.386 626.001 217.538 625.992 217.765 629.13 217.914 631.946 217.914 634 217.914 645.742 228.962 660.099 235.493 666.731 239.27 670.39 243.237 673.845 247.379 677.084 251.33 680.168 255.115 683.458 258.718 686.942 262.783 691.43 268.402 694.203 274.437 694.7L283.563 694.7C289.597 694.203 295.217 691.43 299.281 686.942 302.884 683.461 306.667 680.172 310.614 677.087 314.76 673.847 318.731 670.389 322.51 666.727 329.038 660.098 340.086 645.742 340.086 634 340.086 631.946 340.235 629.13 340.462 625.992 340.614 626.001 340.784 626.033 340.927 626.033 341.108 626.033 341.282 626.026 341.447 626.016 344.167 625.727 346.615 624.233 348.116 621.946 349.999 618.974 351.345 615.694 352.092 612.256 352.441 611.006 352.786 609.758 353.195 608.578L353.779 606.898C355.449 602.511 356.738 597.988 357.634 593.379 358.701 589.116 357.736 584.599 355.022 581.141 352.709 578.773 349.422 577.625 346.138 578.036 345.489 578.131 344.85 578.281 344.228 578.483 344.244 576.1 344.224 573.615 344.149 571.099L378.567 571.099C380.463 571.099 382 569.562 382 567.666 382 565.77 380.463 564.233 378.567 564.233ZM215.463 617.943C214.076 615.611 213.082 613.067 212.523 610.412 212.134 609.024 211.748 607.643 211.296 606.332L210.702 604.632C209.161 600.603 207.967 596.451 207.131 592.219 206.533 590.14 206.781 587.908 207.819 586.01 208.67 585.136 209.88 584.711 211.091 584.86 212.164 585.011 213.163 585.491 213.951 586.235 214.187 592.394 214.571 596.813 214.621 597.366 214.641 597.539 216.002 608.653 216.968 619.15 216.336 618.945 215.801 618.515 215.463 617.943ZM220.881 583.861C220.839 583.794 220.78 583.744 220.737 583.678 220.626 579.716 220.604 575.4 220.733 571.1L227.5 571.1 227.5 582.272 220.904 583.92C220.893 583.901 220.893 583.88 220.881 583.861ZM230.933 649.989C227.51 645.294 225.388 639.778 224.781 634 224.781 630.809 224.466 626.055 224.031 620.999 224.031 620.795 224.013 620.591 223.977 620.391 223.254 612.14 222.239 603.274 221.742 599.089L230.933 610.113 230.933 649.989ZM223.415 590.367 231.144 588.438 255.434 591.471 257.764 605.434 235.973 605.434 223.415 590.367ZM234.367 581.92 234.367 571.1 245.972 571.1 252.478 584.182 234.367 581.92ZM253.642 571.1 270.744 571.1 259.343 582.564 253.642 571.1ZM237.8 616.434 257.177 633.388 249.818 643.2 237.8 643.2 237.8 616.434ZM242.501 663.94C241.768 663.26 241.045 662.583 240.385 661.912 239.567 661.081 238.695 660.138 237.8 659.114L237.8 650.066 249.818 650.066 256.338 658.758 242.501 663.94ZM263.614 682.12C259.832 678.456 255.857 674.995 251.707 671.753 250.61 670.861 249.506 669.961 248.411 669.058L260.268 664.618 273.052 687.628C269.428 686.771 266.142 684.854 263.614 682.12ZM275.567 678.019 267.668 663.8 275.567 663.8 275.567 678.019ZM275.567 656.933 263.549 656.933 255.825 646.633 263.549 636.333 275.567 636.333 275.567 656.933ZM275.567 629.467 263.124 629.467 243.505 612.3 260.945 612.3 275.566 618.143 275.566 629.467ZM275.567 610.748 264.901 606.486 262.077 589.552 275.567 575.987 275.567 610.748ZM221.094 564.233C221.271 558.65 222.399 553.139 224.429 547.935 230.477 535.654 249.401 516.167 274.437 516.167L283.563 516.167C308.599 516.167 327.522 535.654 333.571 547.935 335.6 553.139 336.727 558.651 336.905 564.233L279.003 564.233 221.094 564.233ZM323.633 571.1 323.633 581.92 305.522 584.182 312.028 571.1 323.633 571.1ZM282.433 629.467 282.433 618.143 297.055 612.3 314.495 612.3 294.876 629.467 282.433 629.467ZM302.175 646.633 294.452 656.933 282.434 656.933 282.434 636.333 294.452 636.333 302.175 646.633ZM282.433 610.748 282.433 575.988 295.923 589.553 293.099 606.487 282.433 610.748ZM287.256 571.1 304.358 571.1 298.658 582.564 287.256 571.1ZM282.433 678.019 282.433 663.8 290.332 663.8 282.433 678.019ZM306.286 671.756 306.286 671.756C302.139 674.998 298.167 678.458 294.386 682.12 291.858 684.855 288.571 686.773 284.946 687.631L297.731 664.618 309.588 669.058C308.491 669.963 307.385 670.864 306.286 671.756ZM320.2 659.114C319.306 660.137 318.436 661.079 317.618 661.909 316.957 662.581 316.233 663.259 315.499 663.94L301.662 658.759 308.182 650.067 320.2 650.067 320.2 659.114ZM320.2 643.2 308.182 643.2 300.823 633.388 320.2 616.434 320.2 643.2ZM322.027 605.433 300.236 605.433 302.566 591.47 326.856 588.437 334.585 590.367 322.027 605.433ZM334.023 620.39C333.987 620.591 333.968 620.795 333.969 620.999 333.533 626.057 333.219 630.809 333.219 634 332.612 639.778 330.49 645.294 327.067 649.99L327.067 610.113 336.258 599.089C335.753 603.343 334.743 612.177 334.023 620.39ZM337.265 583.676C337.222 583.743 337.162 583.793 337.119 583.861 337.107 583.88 337.107 583.901 337.096 583.92L330.5 582.271 330.5 571.1 337.266 571.1C337.396 575.403 337.375 579.719 337.265 583.676ZM346.909 584.86 346.909 584.86C348.115 584.713 349.321 585.136 350.171 586.004 351.219 587.905 351.469 590.145 350.865 592.23 350.031 596.458 348.838 600.607 347.297 604.632L346.704 606.332C346.251 607.643 345.866 609.025 345.477 610.413 344.918 613.062 343.928 615.601 342.547 617.93 342.207 618.508 341.669 618.942 341.031 619.15 341.999 608.642 343.363 597.499 343.391 597.252 343.437 596.738 343.817 592.359 344.051 586.233 344.839 585.491 345.837 585.011 346.909 584.86Z" fill="#0B3E47"/></g></svg>