<svg width="206" height="207" xmlns="http://www.w3.org/2000/svg" xmlns:xlink="http://www.w3.org/1999/xlink" overflow="hidden"><defs><clipPath id="clip0"><rect x="176" y="941" width="206" height="207"/></clipPath></defs><g clip-path="url(#clip0)" transform="translate(-176 -941)"><path d="M151.066 63.0799 151.066 10.3006C151.066 4.61122 146.455 0 140.767 0L65.2332 0C59.5453 0 54.934 4.61122 54.934 10.3006L54.934 63.0799C0.0408628 66.1461 2.28706e-14 72.23 2.28706e-14 75.5336L2.28706e-14 103C2.28706e-14 106.434 1.97714 109.764 23.1238 112.614L81.6476 156.587C84.2846 158.522 85.8392 161.599 85.8328 164.868L85.8328 199.134C85.8328 202.926 88.9071 206 92.6992 206 93.9851 205.998 95.244 205.642 96.3392 204.97L115.36 193.064C118.353 191.172 120.169 187.877 120.167 184.336L120.167 164.868C120.166 161.583 121.734 158.495 124.39 156.56L182.876 112.614C204.023 109.764 206 106.434 206 103L206 75.5336C206 72.23 205.959 66.1461 151.066 63.0799ZM199.134 101.97C193.582 105.403 158.396 109.866 103 109.866 47.6037 109.866 12.4177 105.376 6.86656 101.97L6.86656 81.891C15.1602 84.1731 23.6597 85.6268 32.2394 86.2351 51.1572 88.1917 76.2755 89.2668 103 89.2668 129.724 89.2668 154.843 88.1917 173.761 86.2351 182.34 85.6268 190.84 84.1731 199.134 81.891ZM144.199 54.934 61.8008 54.934 61.8008 34.3328 144.199 34.3328ZM61.8008 61.8008 144.199 61.8008 144.199 81.4839C132.146 82.056 118.353 82.4004 103 82.4004 87.6466 82.4004 73.8538 82.056 61.8008 81.4839ZM196.603 75.5541C190.107 77.5831 174.338 79.7771 151.066 81.1193L151.066 69.964C177.575 71.4711 191.044 73.816 196.603 75.5541ZM61.8008 10.3006C61.8008 8.40363 63.3378 6.86656 65.2332 6.86656L140.767 6.86656C142.662 6.86656 144.199 8.40363 144.199 10.3006L144.199 27.4662 61.8008 27.4662ZM54.934 69.964 54.934 81.1193C31.6626 79.7771 15.8926 77.5928 9.39694 75.5541 14.9559 73.816 28.4249 71.4711 54.934 69.964ZM120.307 151.036C115.903 154.269 113.302 159.405 113.301 164.868L113.301 184.336C113.286 185.52 112.678 186.618 111.683 187.261L92.6992 199.134 92.6992 164.868C92.7056 159.422 90.1186 154.297 85.7338 151.066L36.53 114.104C54.8885 115.797 78.2293 116.733 103 116.733 127.771 116.733 151.111 115.797 169.47 114.104Z" fill="#0B3E47" transform="matrix(1 0 0 1.00485 176 941)"/><path d="M75.5336 13.7331 72.0996 13.7331C70.2042 13.7331 68.6672 15.2702 68.6672 17.1672 68.6672 19.0626 70.2042 20.5997 72.0996 20.5997L75.5336 20.5997C77.429 20.5997 78.9664 19.0626 78.9664 17.1672 78.9664 15.2702 77.429 13.7331 75.5336 13.7331Z" fill="#0B3E47" transform="matrix(1 0 0 1.00485 176 941)"/><path d="M92.6992 13.7331 89.2668 13.7331C87.3697 13.7331 85.8328 15.2702 85.8328 17.1672 85.8328 19.0626 87.3697 20.5997 89.2668 20.5997L92.6992 20.5997C94.5963 20.5997 96.1336 19.0626 96.1336 17.1672 96.1336 15.2702 94.5963 13.7331 92.6992 13.7331Z" fill="#0B3E47" transform="matrix(1 0 0 1.00485 176 941)"/><path d="M72.0996 48.066 75.5336 48.066C77.429 48.066 78.9664 46.529 78.9664 44.6336 78.9664 42.7366 77.429 41.1992 75.5336 41.1992L72.0996 41.1992C70.2042 41.1992 68.6672 42.7366 68.6672 44.6336 68.6672 46.529 70.2042 48.066 72.0996 48.066Z" fill="#0B3E47" transform="matrix(1 0 0 1.00485 176 941)"/><path d="M89.2668 48.066 92.6992 48.066C94.5963 48.066 96.1336 46.529 96.1336 44.6336 96.1336 42.7366 94.5963 41.1992 92.6992 41.1992L89.2668 41.1992C87.3697 41.1992 85.8328 42.7366 85.8328 44.6336 85.8328 46.529 87.3697 48.066 89.2668 48.066Z" fill="#0B3E47" transform="matrix(1 0 0 1.00485 176 941)"/><path d="M133.9 13.7331 123.6 13.7331C121.704 13.7331 120.167 15.2702 120.167 17.1672 120.167 19.0626 121.704 20.5997 123.6 20.5997L133.9 20.5997C135.796 20.5997 137.333 19.0626 137.333 17.1672 137.333 15.2702 135.796 13.7331 133.9 13.7331Z" fill="#0B3E47" transform="matrix(1 0 0 1.00485 176 941)"/><path d="M123.6 48.066 133.9 48.066C135.796 48.066 137.333 46.529 137.333 44.6336 137.333 42.7366 135.796 41.1992 133.9 41.1992L123.6 41.1992C121.704 41.1992 120.167 42.7366 120.167 44.6336 120.167 46.529 121.704 48.066 123.6 48.066Z" fill="#0B3E47" transform="matrix(1 0 0 1.00485 176 941)"/><path d="M75.5336 68.6672 72.0996 68.6672C70.2042 68.6672 68.6672 70.2042 68.6672 72.0996 68.6672 73.9967 70.2042 75.5336 72.0996 75.5336L75.5336 75.5336C77.429 75.5336 78.9664 73.9967 78.9664 72.0996 78.9664 70.2042 77.429 68.6672 75.5336 68.6672Z" fill="#0B3E47" transform="matrix(1 0 0 1.00485 176 941)"/><path d="M92.6992 68.6672 89.2668 68.6672C87.3697 68.6672 85.8328 70.2042 85.8328 72.0996 85.8328 73.9967 87.3697 75.5336 89.2668 75.5336L92.6992 75.5336C94.5963 75.5336 96.1336 73.9967 96.1336 72.0996 96.1336 70.2042 94.5963 68.6672 92.6992 68.6672Z" fill="#0B3E47" transform="matrix(1 0 0 1.00485 176 941)"/><path d="M123.6 75.5336 133.9 75.5336C135.796 75.5336 137.333 73.9967 137.333 72.0996 137.333 70.2042 135.796 68.6672 133.9 68.6672L123.6 68.6672C121.704 68.6672 120.167 70.2042 120.167 72.0996 120.167 73.9967 121.704 75.5336 123.6 75.5336Z" fill="#0B3E47" transform="matrix(1 0 0 1.00485 176 941)"/><path d="M30.9003 0C29.0033 0 27.4662 1.53708 27.4662 3.43407L27.4662 39.7786 23.0279 35.3387C21.681 34.0389 19.5388 34.0562 18.2139 35.3811 16.8906 36.706 16.8717 38.8466 18.1731 40.1935L28.4721 50.4941C29.1165 51.1399 29.9919 51.5032 30.9035 51.5032 31.815 51.5032 32.6904 51.1399 33.3348 50.4941L43.6338 40.1935C44.9354 38.8466 44.9165 36.706 43.5931 35.3811 42.2682 34.0562 40.1259 34.0389 38.779 35.3387L34.3328 39.7786 34.3328 3.43407C34.3328 1.53708 32.7957 0 30.9003 0Z" fill="#0B3E47" transform="matrix(1 0 0 1.00485 176 941)"/><path d="M175.1 0C173.204 0 171.667 1.53708 171.667 3.43407L171.667 39.7786 167.227 35.3387C165.88 34.0389 163.738 34.0562 162.415 35.3811 161.09 36.706 161.071 38.8466 162.372 40.1935L172.673 50.4941C173.318 51.1399 174.191 51.5032 175.103 51.5032 176.016 51.5032 176.89 51.1399 177.534 50.4941L187.835 40.1935C189.136 38.8466 189.117 36.706 187.792 35.3811 186.467 34.0562 184.327 34.0389 182.98 35.3387L178.534 39.7786 178.534 3.43407C178.534 1.53708 176.997 0 175.1 0Z" fill="#0B3E47" transform="matrix(1 0 0 1.00485 176 941)"/></g></svg>